<?xml version="1.0" encoding="UTF-8"?>
<svg xmlns="http://www.w3.org/2000/svg" xmlns:xlink="http://www.w3.org/1999/xlink" viewBox="0 0 240 240" width="240px" height="240px">
<g id="surface18900112">
<path style=" stroke:none;fill-rule:nonzero;fill:rgb(100%,100%,100%);fill-opacity:1;" d="M 199.800781 51.695312 C 180.695312 36.320312 150.46875 33.710938 149.175781 33.617188 C 147.167969 33.449219 145.257812 34.574219 144.429688 36.429688 C 144.355469 36.542969 143.699219 38.0625 142.96875 40.425781 C 155.605469 42.5625 171.132812 46.855469 185.175781 55.574219 C 187.425781 56.960938 188.117188 59.925781 186.730469 62.175781 C 185.8125 63.65625 184.257812 64.460938 182.644531 64.460938 C 181.78125 64.460938 180.898438 64.21875 180.113281 63.730469 C 155.960938 48.75 125.8125 48 120 48 C 114.1875 48 84.019531 48.75 59.886719 63.730469 C 57.636719 65.136719 54.675781 64.445312 53.289062 62.195312 C 51.882812 59.925781 52.574219 56.980469 54.824219 55.574219 C 68.867188 46.875 84.394531 42.5625 97.03125 40.445312 C 96.300781 38.0625 95.644531 36.5625 95.585938 36.429688 C 94.742188 34.574219 92.851562 33.414062 90.824219 33.617188 C 89.53125 33.710938 59.304688 36.320312 39.9375 51.898438 C 29.832031 61.257812 9.601562 115.929688 9.601562 163.199219 C 9.601562 164.042969 9.824219 164.851562 10.238281 165.582031 C 24.1875 190.105469 62.269531 196.519531 70.949219 196.800781 C 70.988281 196.800781 71.042969 196.800781 71.101562 196.800781 C 72.636719 196.800781 74.082031 196.070312 74.980469 194.832031 L 83.757812 182.757812 C 60.074219 176.644531 47.980469 166.257812 47.289062 165.636719 C 45.300781 163.894531 45.113281 160.855469 46.875 158.867188 C 48.617188 156.882812 51.65625 156.695312 53.644531 158.4375 C 53.925781 158.699219 76.199219 177.601562 120 177.601562 C 163.875 177.601562 186.148438 158.625 186.375 158.4375 C 188.363281 156.710938 191.382812 156.882812 193.144531 158.886719 C 194.886719 160.875 194.699219 163.894531 192.710938 165.636719 C 192.019531 166.257812 179.925781 176.644531 156.242188 182.757812 L 165.019531 194.832031 C 165.917969 196.070312 167.363281 196.800781 168.898438 196.800781 C 168.957031 196.800781 169.011719 196.800781 169.050781 196.800781 C 177.730469 196.519531 215.8125 190.105469 229.761719 165.582031 C 230.175781 164.851562 230.398438 164.042969 230.398438 163.199219 C 230.398438 115.929688 210.167969 61.257812 199.800781 51.695312 Z M 88.800781 144 C 79.519531 144 72 135.414062 72 124.800781 C 72 114.1875 79.519531 105.601562 88.800781 105.601562 C 98.082031 105.601562 105.601562 114.1875 105.601562 124.800781 C 105.601562 135.414062 98.082031 144 88.800781 144 Z M 151.199219 144 C 141.917969 144 134.398438 135.414062 134.398438 124.800781 C 134.398438 114.1875 141.917969 105.601562 151.199219 105.601562 C 160.480469 105.601562 168 114.1875 168 124.800781 C 168 135.414062 160.480469 144 151.199219 144 Z M 151.199219 144 "/>
</g>
</svg>
