<?xml version="1.0" encoding="UTF-8"?>
<svg xmlns="http://www.w3.org/2000/svg" xmlns:xlink="http://www.w3.org/1999/xlink" viewBox="0 0 240 240" width="240px" height="240px">
<g id="surface324324249">
<path style=" stroke:none;fill-rule:nonzero;fill:rgb(100%,100%,100%);fill-opacity:1;" d="M 154.6875 15 L 29.804688 20 C 29.707031 20.003906 29.609375 20.011719 29.511719 20.019531 C 29.441406 20.023438 29.367188 20.03125 29.296875 20.039062 C 24.066406 20.410156 20.007812 24.753906 20 30 L 20 168.945312 C 20 174.871094 21.761719 180.660156 25.039062 185.585938 L 51.679688 225.546875 C 53.65625 228.515625 57.066406 230.203125 60.625 229.980469 L 220.625 219.980469 C 225.894531 219.648438 230 215.28125 230 210 L 230 55 C 229.996094 52.496094 229.058594 50.085938 227.363281 48.242188 C 226.960938 47.710938 226.457031 47.265625 225.878906 46.933594 C 225.871094 46.925781 225.867188 46.921875 225.859375 46.914062 C 225.273438 46.488281 224.644531 46.128906 223.984375 45.839844 L 182.96875 22.441406 L 183.300781 22.65625 C 174.921875 16.960938 164.851562 14.261719 154.746094 15 Z M 155.253906 24.980469 C 155.3125 24.980469 155.371094 24.980469 155.429688 24.980469 C 163.304688 24.394531 171.148438 26.484375 177.675781 30.917969 C 177.785156 30.992188 177.894531 31.066406 178.007812 31.132812 L 203.242188 45.527344 L 68.554688 49.882812 L 44.6875 29.414062 Z M 210 65.332031 L 210 200.605469 L 70 209.355469 L 70 69.84375 Z M 194.414062 85.019531 C 184.273438 85.621094 174.078125 86.113281 163.90625 86.875 C 160.566406 87.125 158.085938 90.011719 157.675781 93.183594 C 157.484375 94.664062 157.890625 95.425781 159.570312 95.546875 C 162.648438 95.777344 165.707031 96.210938 168.90625 96.582031 L 168.90625 155.273438 C 167.964844 153.921875 167.453125 153.210938 166.972656 152.480469 C 153.871094 132.691406 140.714844 112.9375 127.734375 93.066406 C 125.773438 90.066406 123.941406 88.621094 120.019531 89.0625 C 110.847656 90.074219 101.601562 90.375 92.402344 91.113281 C 87.300781 91.523438 84.273438 95.988281 85.644531 100.839844 C 89.09375 101.140625 92.574219 101.449219 96.132812 101.757812 L 96.132812 186.074219 C 93.792969 186.734375 91.460938 187.476562 89.101562 188.046875 C 86.703125 188.625 85.578125 190.242188 85.117188 192.460938 C 84.746094 194.242188 85.183594 195.140625 87.363281 194.980469 C 94.851562 194.449219 102.382812 194.121094 109.882812 193.671875 C 112.984375 193.492188 116.089844 193.429688 119.140625 192.929688 C 123.300781 192.238281 125.566406 189.703125 126.015625 185.644531 C 122.316406 184.824219 118.59375 183.921875 114.84375 183.203125 C 113.171875 182.882812 112.605469 182.199219 112.617188 180.46875 C 112.675781 160.910156 112.664062 141.335938 112.675781 121.777344 C 112.675781 121.136719 112.808594 120.484375 112.929688 119.414062 C 113.507812 120.183594 113.746094 120.5 113.964844 120.839844 C 124.085938 136.550781 134.175781 152.296875 144.355469 167.96875 C 148.734375 174.707031 153.222656 181.378906 157.832031 187.96875 C 161.171875 192.75 166.070312 194.265625 171.640625 193.105469 C 175.121094 192.375 178.464844 190.980469 181.875 189.902344 C 183.773438 189.300781 184.328125 188.074219 184.316406 186.074219 C 184.246094 157.335938 184.277344 128.601562 184.277344 99.863281 C 184.277344 94.511719 184.261719 94.519531 189.570312 93.417969 C 194.449219 92.40625 195.882812 90.019531 194.414062 85.019531 Z M 194.414062 85.019531 "/>
</g>
</svg>
