<?xml version="1.0" encoding="utf-8"?>
<svg width="243.46997px" height="243.46997px" viewBox="0 0 243.46997 243.46997" version="1.1" xmlns:xlink="http://www.w3.org/1999/xlink" xmlns="http://www.w3.org/2000/svg">
  <defs>
    <path d="M0 0L243.47 0L243.47 243.47L0 243.47L0 0Z" id="path_1" />
    <clipPath id="mask_1">
      <use xlink:href="#path_1" />
    </clipPath>
  </defs>
  <g id="obs">
    <path d="M0 0L243.47 0L243.47 243.47L0 243.47L0 0Z" id="Background" fill="#FFFFFF" fill-opacity="0" fill-rule="evenodd" stroke="none" />
    <g id="obs" transform="translate(1.560669 1.560669)">
      <path d="M0 0L240 0L240 240L0 240L0 0L0 0Z" id="Background" fill="#FFFFFF" fill-opacity="0" fill-rule="evenodd" stroke="none" />
      <path d="M120.174 0.174377C53.9002 0.174377 0.174377 53.9002 0.174377 120.174C0.174377 186.449 53.9002 240.174 120.174 240.174C186.449 240.174 240.174 186.449 240.174 120.174C240.174 53.9002 186.449 0.174377 120.174 0.174377L120.174 0.174377L120.174 0.174377ZM90.9854 15.2581C74.7619 23.3029 62.6949 39.3587 59.0077 57.1576L59.2088 57.2816C55.9909 71.2928 58.3373 86.276 64.7395 99.181C68.7619 99.5498 72.7843 99.8716 76.7731 100.582C89.3429 103.23 100.907 110.672 108.248 121.23C118.069 134.638 120.281 153.207 114.449 168.828C109.186 183.175 97.22 194.805 82.7395 199.599C71.9463 203.437 60.1474 202.884 49.287 199.716C61.4211 205.201 75.1306 207.312 88.1697 204.577C105.131 201.359 120.751 190.666 129.399 175.683C123.181 163.682 121.488 149.236 125.443 136.13C130.103 119.672 143.611 106.297 159.968 101.605C173.008 97.6492 187.623 99.3588 199.522 106.063C211.824 112.867 220.84 124.934 224.427 138.509C224.125 128.286 219.701 118.465 214.036 110.085C202.974 94.0291 184.136 84.0269 164.762 83.3699C155.712 99.4258 137.678 110.075 119.175 109.247C95.3094 109.583 73.287 90.4426 69.5664 67.0124C66.6166 51.6604 71.4435 34.9676 82.1362 23.4369C84.7508 20.3196 88.163 18.1241 90.9854 15.2581L90.9854 15.2581L90.9854 15.2581Z" id="obs#1" fill="#FFFFFF" fill-rule="evenodd" stroke="none" />
    </g>
  </g>
</svg>