<?xml version="1.0" encoding="utf-8"?>
<svg width="240px" height="240px" viewBox="0 0 240 240" version="1.1"
  xmlns:xlink="http://www.w3.org/1999/xlink" xmlns="http://www.w3.org/2000/svg">
  <g id="rss">
    <path
      d="M78.6993 200.6C78.7294 216.513 69.1619 230.874 54.4614 236.984C39.761 243.094 22.825 239.748 11.5566 228.507C0.288094 217.267 -3.09181 200.347 2.99405 185.644C9.0799 170.94 23.4319 161.351 39.353 161.352C61.0627 161.331 78.6786 178.903 78.6992 200.6L78.6993 200.6ZM240 220.048C240 98.7087 141.094 0 19.548 0C12.9574 0 9.99961 0.206249 9.99961 0.206249C4.41438 0.690403 0.0979302 5.31646 0.00122814 10.9218L0.00122814 40.5513C-0.0414098 43.1395 1.0279 45.6218 2.9381 47.3689C4.84829 49.116 7.41595 49.9601 9.99018 49.6872C9.99024 49.6872 12.934 49.42 19.548 49.42C113.804 49.42 190.5 125.966 190.5 220.044C190.5 226.789 190.205 230.033 190.205 230.033C189.924 232.602 190.762 235.167 192.506 237.075C194.249 238.982 196.729 240.047 199.313 239.998L229.027 239.998C234.632 239.917 239.269 235.612 239.766 230.028C239.766 230.028 240 226.78 240 220.048L240 220.048ZM155.508 219.92C155.508 145.138 94.5242 84.2877 19.548 84.2877C16.3473 84.2385 13.1461 84.3542 9.95733 84.6344C4.48246 85.309 0.00122814 90.3544 0.00122814 95.859L0.00122814 125.977C0.00122814 131.468 4.44027 135.169 9.87305 134.194C9.87305 134.194 12.8168 133.665 19.548 133.665C67.2243 133.665 106.008 172.356 106.008 219.915C106.008 226.793 105.404 230.011 105.404 230.011C104.405 235.431 108.09 239.849 113.607 239.849L143.85 239.849C149.363 239.849 154.435 235.389 155.1 229.931C155.417 226.604 155.553 223.262 155.508 219.92L155.508 219.92Z"
      id="Shape" fill="#FFFFFF" fill-rule="evenodd" stroke="none" />
  </g>
</svg>
