<?xml version="1.0" encoding="UTF-8"?>
<svg xmlns="http://www.w3.org/2000/svg" xmlns:xlink="http://www.w3.org/1999/xlink" viewBox="0 0 240 240" width="240px" height="240px">
<g id="surface324325408">
<path style=" stroke:none;fill-rule:nonzero;fill:rgb(100%,100%,100%);fill-opacity:1;" d="M 92 24 C 80.953125 24 72 32.953125 72 44 C 72 55.046875 80.953125 64 92 64 L 112 64 L 112 44 C 112 32.953125 103.046875 24 92 24 Z M 140 24 C 128.953125 24 120 32.953125 120 44 L 120 92 C 120 103.046875 128.953125 112 140 112 C 151.046875 112 160 103.046875 160 92 L 160 44 C 160 32.953125 151.046875 24 140 24 Z M 44 72 C 32.953125 72 24 80.953125 24 92 C 24 103.046875 32.953125 112 44 112 L 92 112 C 103.046875 112 112 103.046875 112 92 C 112 80.953125 103.046875 72 92 72 Z M 188 72 C 176.953125 72 168 80.953125 168 92 L 168 112 L 188 112 C 199.046875 112 208 103.046875 208 92 C 208 80.953125 199.046875 72 188 72 Z M 44 120 C 32.953125 120 24 128.953125 24 140 C 24 151.046875 32.953125 160 44 160 C 55.046875 160 64 151.046875 64 140 L 64 120 Z M 92 120 C 80.953125 120 72 128.953125 72 140 L 72 188 C 72 199.046875 80.953125 208 92 208 C 103.046875 208 112 199.046875 112 188 L 112 140 C 112 128.953125 103.046875 120 92 120 Z M 140 120 C 128.953125 120 120 128.953125 120 140 C 120 151.046875 128.953125 160 140 160 L 188 160 C 199.046875 160 208 151.046875 208 140 C 208 128.953125 199.046875 120 188 120 Z M 120 168 L 120 188 C 120 199.046875 128.953125 208 140 208 C 151.046875 208 160 199.046875 160 188 C 160 176.953125 151.046875 168 140 168 Z M 120 168 "/>
</g>
</svg>
