<?xml version="1.0" encoding="utf-8"?>
<svg width="240px" height="240px" viewBox="0 0 240 240" version="1.1" xmlns:xlink="http://www.w3.org/1999/xlink" xmlns="http://www.w3.org/2000/svg">
  <defs>
    <linearGradient gradientUnits="userSpaceOnUse" x1="0" y1="0" x2="204.42" y2="240" id="gradient_1">
      <stop offset="0%" stop-color="#87B3A4" />
      <stop offset="50.470085%" stop-color="#7690B0" />
      <stop offset="100%" stop-color="#3E4C52" />
    </linearGradient>
  </defs>
  <g id="brave">
    <g id="brave">
      <path d="M0 0L240 0L240 240L0 240L0 0L0 0Z" id="Background" fill="#FFFFFF" fill-opacity="0" fill-rule="evenodd" stroke="none" />
      <path d="M156.8 0L177.76 23.8C177.76 23.8 196.16 18.68 204.85 27.38C213.53 36.08 220.69 43.76 220.69 43.76L215.07 57.57L222.22 78.04C222.22 78.04 201.18 157.84 198.72 167.59C193.86 186.78 190.54 194.19 176.74 203.92C162.94 213.64 137.9 230.52 133.81 233.08C129.72 235.64 124.61 240 120.01 240C115.41 240 110.31 235.64 106.21 233.08C91.7638 223.56 77.4513 213.838 63.2765 203.918C49.48 194.19 46.16 186.78 41.31 167.59C38.84 157.84 17.8 78.04 17.8 78.04L24.95 57.57L19.33 43.76C19.33 43.76 26.49 36.08 35.18 27.38C43.86 18.68 62.26 23.8 62.26 23.8L83.21 0L156.81 0L156.8 0L156.8 0ZM120.01 149.36C118.61 149.36 109.63 152.53 102.43 156.26C95.23 159.99 90.01 162.63 88.34 163.68C86.67 164.72 87.69 166.69 89.21 167.77C90.73 168.84 111.15 184.67 113.14 186.43C115.12 188.18 118.03 191.07 120.01 191.07C121.99 191.07 124.91 188.17 126.89 186.43C128.87 184.68 149.29 168.84 150.81 167.77C152.33 166.69 153.35 164.72 151.68 163.67C150.01 162.63 144.79 159.99 137.58 156.26C130.38 152.53 121.41 149.36 120.01 149.36L120.01 149.36L120.01 149.36ZM120.01 36.58C120.01 36.58 115.92 36.59 109.79 38.64C103.66 40.69 97.01 43.24 93.95 43.24C90.88 43.24 68.14 38.9 68.14 38.9C68.14 38.9 41.19 71.52 41.19 78.49C41.19 85.46 44.58 87.3 47.99 90.92L68.19 112.41C70.11 114.44 74.09 117.52 71.75 123.07C69.4 128.62 65.95 135.67 69.79 142.84C73.63 150 80.21 154.78 84.43 153.99C88.64 153.19 98.55 148.01 102.19 145.65C105.83 143.28 117.37 133.75 117.37 130.11C117.37 126.46 105.44 119.91 103.24 118.43C101.04 116.93 90.98 111.18 90.77 108.93C90.57 106.66 90.65 106 93.61 100.42C96.58 94.83 101.92 87.38 101.03 82.42C100.14 77.47 91.53 74.89 85.38 72.56C79.23 70.24 67.39 65.85 65.91 65.16C64.43 64.48 64.81 63.83 69.3 63.41C73.78 62.98 86.49 61.29 92.22 62.89C97.95 64.49 107.74 66.92 108.54 68.21C109.33 69.51 110.03 69.55 109.21 74C108.4 78.45 104.21 99.81 103.8 103.6C103.4 107.4 102.6 109.9 106.68 110.84C110.77 111.78 117.65 113.4 120.01 113.4C122.37 113.4 129.25 111.78 133.34 110.84C137.42 109.91 136.63 107.4 136.22 103.61C135.82 99.81 131.62 78.45 130.81 74C129.99 69.55 130.69 69.5 131.48 68.21C132.28 66.92 142.07 64.49 147.8 62.89C153.53 61.29 166.25 62.98 170.72 63.41C175.21 63.83 175.59 64.48 174.11 65.16C172.63 65.85 160.79 70.24 154.64 72.56C148.49 74.89 139.88 77.46 138.99 82.42C138.09 87.38 143.44 94.83 146.41 100.42C149.38 106 149.45 106.66 149.25 108.92C149.05 111.18 138.99 116.94 136.78 118.42C134.58 119.92 122.65 126.46 122.65 130.11C122.65 133.75 134.19 143.28 137.83 145.65C141.47 148.01 151.38 153.2 155.59 153.99C159.81 154.78 166.39 149.99 170.23 142.84C174.07 135.68 170.62 128.62 168.28 123.07C165.93 117.52 169.91 114.44 171.83 112.41L192.03 90.92C195.44 87.3 198.83 85.46 198.83 78.49C198.83 71.52 171.88 38.89 171.88 38.89C171.88 38.89 149.14 43.25 146.08 43.25C143.01 43.25 136.36 40.69 130.23 38.64C124.1 36.59 120.01 36.58 120.01 36.58L120.01 36.58L120.01 36.58Z" id="Shape" fill="url(#gradient_1)" fill-rule="evenodd" stroke="none" />
    </g>
  </g>
</svg>