<?xml version="1.0" encoding="utf-8"?>
<svg width="240px" height="240px" viewBox="0 0 240 240" version="1.1" xmlns:xlink="http://www.w3.org/1999/xlink" xmlns="http://www.w3.org/2000/svg">
  <defs>
    <linearGradient gradientUnits="userSpaceOnUse" x1="0" y1="0" x2="220.79688" y2="163.20657" id="gradient_1">
      <stop offset="0%" stop-color="#87B3A4" />
      <stop offset="50.470085%" stop-color="#7690B0" />
      <stop offset="100%" stop-color="#3E4C52" />
    </linearGradient>
    <path d="M0 0L240 0L240 240L0 240L0 0Z" id="path_1" />
    <clipPath id="mask_1">
      <use xlink:href="#path_1" />
    </clipPath>
  </defs>
  <g id="discord">
    <path d="M0 0L240 0L240 240L0 240L0 0Z" id="Background" fill="#FFFFFF" fill-opacity="0" fill-rule="evenodd" stroke="none" />
    <path d="M199.801 51.6953C180.695 36.3203 150.469 33.7109 149.176 33.6172C147.168 33.4492 145.258 34.5742 144.43 36.4297C144.355 36.543 143.699 38.0625 142.969 40.4258C155.605 42.5625 171.133 46.8555 185.176 55.5742C187.426 56.9609 188.117 59.9258 186.73 62.1758C185.812 63.6562 184.258 64.4609 182.645 64.4609C181.781 64.4609 180.898 64.2188 180.113 63.7305C155.961 48.75 125.812 48 120 48C114.188 48 84.0195 48.75 59.8867 63.7305C57.6367 65.1367 54.6758 64.4453 53.2891 62.1953C51.8828 59.9258 52.5742 56.9805 54.8242 55.5742C68.8672 46.875 84.3945 42.5625 97.0312 40.4453C96.3008 38.0625 95.6445 36.5625 95.5859 36.4297C94.7422 34.5742 92.8516 33.4141 90.8242 33.6172C89.5312 33.7109 59.3047 36.3203 39.9375 51.8984C29.832 61.2578 9.60156 115.93 9.60156 163.199C9.60156 164.043 9.82422 164.852 10.2383 165.582C24.1875 190.105 62.2695 196.52 70.9492 196.801C70.9883 196.801 71.043 196.801 71.1016 196.801C72.6367 196.801 74.082 196.07 74.9805 194.832L83.7578 182.758C60.0742 176.645 47.9805 166.258 47.2891 165.637C45.3008 163.895 45.1133 160.855 46.875 158.867C48.6172 156.883 51.6562 156.695 53.6445 158.438C53.9258 158.699 76.1992 177.602 120 177.602C163.875 177.602 186.148 158.625 186.375 158.438C188.363 156.711 191.383 156.883 193.145 158.887C194.887 160.875 194.699 163.895 192.711 165.637C192.02 166.258 179.926 176.645 156.242 182.758L165.02 194.832C165.918 196.07 167.363 196.801 168.898 196.801C168.957 196.801 169.012 196.801 169.051 196.801C177.73 196.52 215.812 190.105 229.762 165.582C230.176 164.852 230.398 164.043 230.398 163.199C230.398 115.93 210.168 61.2578 199.801 51.6953L199.801 51.6953ZM88.8008 144C79.5195 144 72 135.414 72 124.801C72 114.188 79.5195 105.602 88.8008 105.602C98.082 105.602 105.602 114.188 105.602 124.801C105.602 135.414 98.082 144 88.8008 144L88.8008 144ZM151.199 144C141.918 144 134.398 135.414 134.398 124.801C134.398 114.188 141.918 105.602 151.199 105.602C160.48 105.602 168 114.188 168 124.801C168 135.414 160.48 144 151.199 144L151.199 144Z" id="surface18900112" fill="url(#gradient_1)" fill-rule="evenodd" stroke="none" />
  </g>
</svg>