<?xml version="1.0" encoding="utf-8"?>
<svg width="240px" height="240px" viewBox="0 0 240 240" version="1.1" xmlns:xlink="http://www.w3.org/1999/xlink" xmlns="http://www.w3.org/2000/svg">
  <defs>
    <linearGradient gradientUnits="userSpaceOnUse" x1="0" y1="0" x2="210" y2="215.11954" id="gradient_1">
      <stop offset="0%" stop-color="#848484" />
      <stop offset="50%" stop-color="#585858" />
      <stop offset="100%" stop-color="#262626" />
    </linearGradient>
    <path d="M0 0L240 0L240 240L0 240L0 0Z" id="path_1" />
    <clipPath id="mask_1">
      <use xlink:href="#path_1" />
    </clipPath>
  </defs>
  <g id="notion">
    <path d="M0 0L240 0L240 240L0 240L0 0Z" id="Background" fill="#FFFFFF" fill-opacity="0" fill-rule="evenodd" stroke="none" />
    <path d="M154.688 15L29.8047 20C29.707 20.0039 29.6094 20.0117 29.5117 20.0195C29.4414 20.0234 29.3672 20.0312 29.2969 20.0391C24.0664 20.4102 20.0078 24.7539 20 30L20 168.945C20 174.871 21.7617 180.66 25.0391 185.586L51.6797 225.547C53.6562 228.516 57.0664 230.203 60.625 229.98L220.625 219.98C225.895 219.648 230 215.281 230 210L230 55C229.996 52.4961 229.059 50.0859 227.363 48.2422C226.961 47.7109 226.457 47.2656 225.879 46.9336C225.871 46.9258 225.867 46.9219 225.859 46.9141C225.273 46.4883 224.645 46.1289 223.984 45.8398L182.969 22.4414L183.301 22.6562C174.922 16.9609 164.852 14.2617 154.746 15L154.688 15ZM155.254 24.9805C155.312 24.9805 155.371 24.9805 155.43 24.9805C163.305 24.3945 171.148 26.4844 177.676 30.918C177.785 30.9922 177.895 31.0664 178.008 31.1328L203.242 45.5273L68.5547 49.8828L44.6875 29.4141L155.254 24.9805ZM210 65.332L210 200.605L70 209.355L70 69.8438L210 65.332ZM194.414 85.0195C184.273 85.6211 174.078 86.1133 163.906 86.875C160.566 87.125 158.086 90.0117 157.676 93.1836C157.484 94.6641 157.891 95.4258 159.57 95.5469C162.648 95.7773 165.707 96.2109 168.906 96.582L168.906 155.273C167.965 153.922 167.453 153.211 166.973 152.48C153.871 132.691 140.715 112.938 127.734 93.0664C125.773 90.0664 123.941 88.6211 120.02 89.0625C110.848 90.0742 101.602 90.375 92.4023 91.1133C87.3008 91.5234 84.2734 95.9883 85.6445 100.84C89.0938 101.141 92.5742 101.449 96.1328 101.758L96.1328 186.074C93.793 186.734 91.4609 187.477 89.1016 188.047C86.7031 188.625 85.5781 190.242 85.1172 192.461C84.7461 194.242 85.1836 195.141 87.3633 194.98C94.8516 194.449 102.383 194.121 109.883 193.672C112.984 193.492 116.09 193.43 119.141 192.93C123.301 192.238 125.566 189.703 126.016 185.645C122.316 184.824 118.594 183.922 114.844 183.203C113.172 182.883 112.605 182.199 112.617 180.469C112.676 160.91 112.664 141.336 112.676 121.777C112.676 121.137 112.809 120.484 112.93 119.414C113.508 120.184 113.746 120.5 113.965 120.84C124.086 136.551 134.176 152.297 144.355 167.969C148.734 174.707 153.223 181.379 157.832 187.969C161.172 192.75 166.07 194.266 171.641 193.105C175.121 192.375 178.465 190.98 181.875 189.902C183.773 189.301 184.328 188.074 184.316 186.074C184.246 157.336 184.277 128.602 184.277 99.8633C184.277 94.5117 184.262 94.5195 189.57 93.418C194.449 92.4062 195.883 90.0195 194.414 85.0195L194.414 85.0195Z" id="surface324324249" fill="url(#gradient_1)" fill-rule="evenodd" stroke="none" />
  </g>
</svg>
