<?xml version="1.0" encoding="utf-8"?>
<svg width="64.00145px" height="64.001686px" viewBox="0 0 64.00145 64.001686" version="1.1" xmlns:xlink="http://www.w3.org/1999/xlink" xmlns="http://www.w3.org/2000/svg">
  <defs>
    <linearGradient gradientUnits="userSpaceOnUse" x1="0" y1="0" x2="64.00145" y2="64.001686" id="gradient_1">
      <stop offset="0%" stop-color="#848484" />
      <stop offset="50%" stop-color="#585858" />
      <stop offset="100%" stop-color="#262626" />
    </linearGradient>
  </defs>
  <g id="postman">
    <path d="M57.328 12.4429C49.4167 2.19839 36.1131 -2.2713 23.6211 1.11824C11.1292 4.50778 1.90939 15.0889 0.261373 27.9272C-1.38664 40.7655 4.86172 53.3323 16.0925 59.767C27.3234 66.2018 41.3246 65.2372 51.5668 57.323C65.547 46.5189 68.127 26.4279 57.327 12.4429L57.328 12.4429ZM42.055 14.8359C42.768 13.0889 44.468 11.9459 46.368 11.9359L46.368 11.9349C47.41 11.9419 48.421 12.2879 49.248 12.9219L45.088 17.1089C44.99 17.1869 44.932 17.3039 44.928 17.4289C44.924 17.5639 44.983 17.6919 45.088 17.7759L48.235 20.9229C46.462 21.6909 44.418 21.2989 43.062 19.9359C41.73 18.5939 41.342 16.5829 42.055 14.8359ZM46.101 17.4309L49.114 20.4439C49.3212 20.2986 49.5174 20.1382 49.701 19.9639C50.5867 19.0806 51.0856 17.8818 51.088 16.6309C51.09 15.5115 50.682 14.43 49.941 13.5909L46.101 17.4309ZM49.567 15.8839C49.7521 15.8009 49.97 15.8697 50.074 16.0439L50.074 16.0429C50.3755 16.684 50.2821 17.4412 49.834 17.9899C49.7473 18.0875 49.6135 18.1287 49.487 18.0969C49.4185 18.1239 49.3424 18.1239 49.274 18.0969C49.2106 18.0278 49.1749 17.9377 49.174 17.8439C49.174 17.7479 49.204 17.6569 49.274 17.5909C49.542 17.2489 49.594 16.7839 49.407 16.3909C49.361 16.3019 49.351 16.1989 49.381 16.1039C49.4107 16.0084 49.4778 15.9291 49.567 15.8839ZM28.4822 32.3981L26.154 30.0699C32.261 23.9899 35.994 20.8169 38.314 19.7769C39.3926 19.0969 40.7657 19.2161 41.7074 20.0118C41.1626 20.0653 40.6323 20.3004 40.2148 20.717L28.4822 32.3981ZM30.333 34.502L29 33.142L29.1136 33.0295L29.1081 33.024L29.1084 33.0237L29.1138 33.0292L40.813 21.435C41.396 20.855 42.337 20.855 42.92 21.435C43.223 21.715 43.385 22.117 43.373 22.528C43.3661 22.7655 43.3014 22.9946 43.1882 23.1979C43.2709 23.0819 43.3363 22.9547 43.3825 22.8204C43.3177 23.0393 43.2023 23.2413 43.0449 23.4097C42.9911 23.476 42.9313 23.5381 42.866 23.595L30.333 34.502ZM31.2699 35.0795L33.194 37.0029C37.9846 32.4755 42.5823 27.819 43.4868 24.3671L31.2699 35.0795ZM22.475 33.7509L25.488 30.7379L27.462 32.6839L22.475 33.7509ZM28.474 33.7499L26.741 35.4829L29.728 35.0299L28.474 33.7499ZM25.4491 36.6303L15.755 46.4699L18.901 49.6429C18.9617 49.697 19.0533 49.697 19.114 49.6429C19.1542 49.587 19.1542 49.5117 19.114 49.4559L18.581 47.1359C18.495 46.7929 18.661 46.4359 18.981 46.2829C23.7564 43.9706 28.2335 41.0872 32.314 37.6959L30.4698 35.8517L25.4491 36.6303ZM12.634 49.5639L17.967 49.9109L15.034 47.1639L12.634 49.5639Z" id="Shape-Subtract-5" fill="url(#gradient_1)" fill-rule="evenodd" stroke="none" />
  </g>
</svg>
