<?xml version="1.0" encoding="utf-8"?>
<svg width="240px" height="240px" viewBox="0 0 240 240" version="1.1" xmlns:xlink="http://www.w3.org/1999/xlink" xmlns="http://www.w3.org/2000/svg">
  <defs>
    <linearGradient gradientUnits="userSpaceOnUse" x1="0" y1="0" x2="184" y2="184" id="gradient_1">
      <stop offset="0%" stop-color="#87B3A4" />
      <stop offset="50.470085%" stop-color="#7690B0" />
      <stop offset="100%" stop-color="#3E4C52" />
    </linearGradient>
    <path d="M0 0L240 0L240 240L0 240L0 0Z" id="path_1" />
    <clipPath id="mask_1">
      <use xlink:href="#path_1" />
    </clipPath>
  </defs>
  <g id="slack">
    <path d="M0 0L240 0L240 240L0 240L0 0Z" id="Background" fill="#FFFFFF" fill-opacity="0" fill-rule="evenodd" stroke="none" />
    <path d="M92 24C80.9531 24 72 32.9531 72 44C72 55.0469 80.9531 64 92 64L112 64L112 44C112 32.9531 103.047 24 92 24L92 24ZM140 24C128.953 24 120 32.9531 120 44L120 92C120 103.047 128.953 112 140 112C151.047 112 160 103.047 160 92L160 44C160 32.9531 151.047 24 140 24L140 24ZM44 72C32.9531 72 24 80.9531 24 92C24 103.047 32.9531 112 44 112L92 112C103.047 112 112 103.047 112 92C112 80.9531 103.047 72 92 72L44 72ZM188 72C176.953 72 168 80.9531 168 92L168 112L188 112C199.047 112 208 103.047 208 92C208 80.9531 199.047 72 188 72L188 72ZM44 120C32.9531 120 24 128.953 24 140C24 151.047 32.9531 160 44 160C55.0469 160 64 151.047 64 140L64 120L44 120ZM92 120C80.9531 120 72 128.953 72 140L72 188C72 199.047 80.9531 208 92 208C103.047 208 112 199.047 112 188L112 140C112 128.953 103.047 120 92 120L92 120ZM140 120C128.953 120 120 128.953 120 140C120 151.047 128.953 160 140 160L188 160C199.047 160 208 151.047 208 140C208 128.953 199.047 120 188 120L140 120ZM120 168L120 188C120 199.047 128.953 208 140 208C151.047 208 160 199.047 160 188C160 176.953 151.047 168 140 168L120 168Z" id="surface324325408" fill="url(#gradient_1)" fill-rule="evenodd" stroke="none" />
  </g>
</svg>