<?xml version="1.0" encoding="utf-8"?>
<svg width="240px" height="240px" viewBox="0 0 240 240" version="1.1" xmlns:xlink="http://www.w3.org/1999/xlink" xmlns="http://www.w3.org/2000/svg">
  <defs>
    <linearGradient gradientUnits="userSpaceOnUse" x1="0" y1="0" x2="240" y2="240" id="gradient_1">
      <stop offset="0%" stop-color="#848484" />
      <stop offset="50%" stop-color="#585858" />
      <stop offset="100%" stop-color="#262626" />
    </linearGradient>
  </defs>
  <g id="spotify">
    <path d="M120 0C53.9775 0 0 53.9775 0 120C0 186.022 53.9775 240 120 240C186.023 240 240 186.022 240 120C240 53.9775 186.6 0 120 0L120 0L120 0ZM175.2 173.4C172.808 176.993 168.592 178.2 165 175.777C136.8 158.4 101.408 154.8 59.3775 164.378C55.2 165.615 51.6 162.615 50.385 158.977C49.215 154.8 52.185 151.208 55.7775 150C101.408 139.8 141.015 143.977 172.185 163.2C176.408 165 176.985 169.8 175.193 173.4L175.2 173.4L175.2 173.4ZM189.607 140.392C186.6 144.615 181.208 146.415 176.985 143.4C144.607 123.592 95.385 117.622 57.615 129.607C52.8075 130.777 47.3775 128.4 46.2075 123.585C45 118.785 47.3775 113.392 52.185 112.185C96.015 98.9775 149.993 105.615 187.185 128.392C190.815 130.192 192.615 136.2 189.607 140.385L189.607 140.392L189.607 140.392ZM190.823 106.8C152.385 83.9775 88.2 81.6 51.6 93.0075C45.5925 94.8 39.6075 91.2075 37.8075 85.7775C36.015 79.8 39.6075 73.785 45 71.985C87.6225 59.3775 157.808 61.7925 202.23 88.1925C207.623 91.2 209.408 98.3925 206.408 103.785C203.4 108.008 196.208 109.793 190.815 106.793L190.823 106.8L190.823 106.8Z" id="spotify" fill="url(#gradient_1)" fill-rule="evenodd" stroke="none" />
  </g>
</svg>
